<svg width="535" height="173" xmlns="http://www.w3.org/2000/svg" xml:space="preserve" version="1.1">
 <g>
  <title>Layer 1</title>
  <g id="svg_1">
   <rect id="svg_2" fill="#ffffff" height="162.9" width="2.46" class="st0" y="4.93" x="281.23"/>
  </g>
  <path id="svg_3" fill="#ffffff" d="m260.38,126.07l0,-72.61c0,-0.31 -0.13,-0.61 -0.36,-0.83c-0.23,-0.22 -0.55,-0.32 -0.85,-0.3l-59.46,3.97l-6.84,-9.01c0,0 0,0 -0.01,-0.01c-0.07,-0.09 -0.15,-0.17 -0.24,-0.25c-0.1,-0.09 -0.21,-0.17 -0.32,-0.24c-0.1,-0.06 -0.19,-0.11 -0.29,-0.15c-0.17,-0.07 -0.35,-0.12 -0.54,-0.14c-0.05,-0.01 -0.1,-0.02 -0.16,-0.02c-0.04,0 -0.07,-0.01 -0.11,-0.01c-0.14,0 -0.27,0.05 -0.4,0.08c-0.09,0.02 -0.18,0.01 -0.26,0.04l-0.12,0.04c-0.01,0.01 -0.03,0.01 -0.04,0.01l-22.26,7.7l-36.25,-26.43c-0.52,-0.38 -1.24,-0.44 -1.83,-0.08l-19.72,11.77l-10.58,-5.53c-0.34,-0.18 -0.76,-0.16 -1.1,0.07l-0.03,0.02l-1.5,1.04l-9.51,-4.66c-0.02,-0.01 -0.04,-0.02 -0.05,-0.02c0,0 0,0 0,0l0,-24.8c0,-0.35 -0.21,-0.66 -0.54,-0.79l-12.22,-4.87c0,0 -0.01,0 -0.01,0l-0.02,-0.01c-0.01,0 -0.02,0 -0.04,0c-0.11,-0.04 -0.22,-0.05 -0.33,-0.05c-0.04,0 -0.07,0.01 -0.11,0.02c-0.09,0.02 -0.17,0.05 -0.25,0.09c-0.02,0.01 -0.05,0.01 -0.07,0.03c-0.02,0.01 -0.02,0.03 -0.04,0.04c-0.02,0.02 -0.05,0.02 -0.07,0.04l-6.36,6.05c-0.17,0.16 -0.26,0.38 -0.26,0.62l0,4.06l-3.84,3.83l-3.69,-1.02l0,0c-0.36,-0.1 -0.72,0.06 -0.91,0.36l-4.98,6.19c-0.04,-0.02 -0.08,-0.05 -0.12,-0.06l-33.47,-7.68c-0.02,-0.01 -0.03,-0.02 -0.04,-0.02c-0.01,0 -0.01,-0.01 -0.01,-0.01c-0.05,-0.02 -0.11,-0.02 -0.16,-0.03c-0.04,-0.01 -0.08,-0.03 -0.13,-0.03c0,0 -0.01,0 -0.01,0c-0.07,0 -0.13,0.02 -0.19,0.04c-0.04,0.01 -0.09,0.01 -0.13,0.03c-0.03,0.01 -0.06,0.04 -0.09,0.06c-0.06,0.04 -0.12,0.07 -0.17,0.12c-0.01,0.01 -0.01,0.02 -0.02,0.03c-0.06,0.07 -0.12,0.15 -0.15,0.24c0,0 0,0 0,0l-14.96,39.63c-0.02,0.06 -0.04,0.13 -0.04,0.2l0,7.15l-2.4,0c-0.03,0 -0.06,0.03 -0.09,0.04c-0.08,0.01 -0.13,0.04 -0.2,0.08c-0.06,0.04 -0.11,0.08 -0.15,0.14c-0.02,0.03 -0.06,0.03 -0.07,0.07l-1.16,2.44c-0.04,0.08 -0.05,0.16 -0.05,0.24l0,64.81c0,0.16 0.07,0.32 0.19,0.43l1.16,1.02c0.11,0.1 0.24,0.14 0.37,0.14l2.92,0l0.84,0.13l-0.02,2.56c0,0.28 0.2,0.54 0.49,0.6l184.84,40.08c0.01,0 0.03,0.01 0.03,0.01c0.18,0.04 0.35,0.01 0.52,0c0.08,-0.01 0.15,0.01 0.23,0c0.34,-0.06 0.65,-0.2 0.92,-0.4l45.55,-29.28c0.43,-0.27 0.64,-0.74 0.64,-1.21c0,-0.01 0,-0.01 0,-0.02l0,-0.09c0,-0.05 0.01,-0.09 0,-0.14l0,-1.23l2.35,0.12c0.01,0 0.02,0 0.03,0c0.1,0 0.21,-0.03 0.3,-0.08l1.69,-1.05c0.17,-0.1 0.27,-0.29 0.27,-0.48l-0.02,-10.29l8.08,0l0,14.1c0,0.47 0.38,0.85 0.85,0.85l7.37,0c0.47,0 0.85,-0.38 0.85,-0.85l0,-16.32c-0.01,-0.13 -0.03,-0.23 -0.07,-0.33zm-2.27,-71.39l0,70.57l-19.43,0l0,-17.13c0,-0.05 -0.02,-0.09 -0.03,-0.14c-0.01,-0.12 -0.03,-0.23 -0.07,-0.34c-0.02,-0.07 -0.06,-0.12 -0.09,-0.18c-0.04,-0.07 -0.05,-0.15 -0.1,-0.21l-37.04,-48.78l56.76,-3.79zm-137.95,99.63l0.18,-45.72l0,-0.02c0,-0.07 0,-0.13 -0.01,-0.2c-0.11,-0.93 -0.95,-1.59 -1.88,-1.47l-103.39,12.43l-0.01,0c-0.33,0.04 -0.58,0.32 -0.58,0.66l0.09,13.17l-7.89,-1.58l-0.14,-20.33l182.58,-59.77l0,116.64l-68.95,-13.81zm-104.36,-33.72l101.15,-10.12l0.17,43.23l-101.41,-20.31l0.09,-12.8zm177.51,-65.95l42.53,53.99l0,32.38l-42.53,25.94l0,-112.31zm-61,12.1l0,-34.4l32.69,23.09l-32.69,11.31zm-111.62,-52.41l32.47,7.9l0.13,43.28l-24.67,17.06c-0.11,0.08 -0.19,0.21 -0.19,0.36l0.03,5.53l-7.87,4.7l0.1,-78.83zm44.72,2.7l0.09,40.02l-5.27,3.65l0.07,-45.07l5.11,1.4zm-6.67,44.7l-4.06,2.81l0.13,-42.92l3.87,-4.78l0.06,44.89zm-29.45,21.43l69.12,-46.14l0,9.68l-69.14,41.26l0.02,-4.8zm70.82,-46.47l8.74,3.78l-8.74,5.22l0,-9zm-3.95,-0.84l-8.62,5.96l0,-9.46l8.62,3.5zm-10.31,7.14l-10.55,7.3l0,-48.2l10.55,4.21l0,36.69zm-16.91,-35.75l4.66,-4.43l0,48.65l-2.25,1.56l0,-44.13c0,-0.22 -0.08,-0.44 -0.25,-0.6c-0.33,-0.33 -0.87,-0.33 -1.2,0l-0.95,0.95l0,-2l-0.01,0zm-0.3,4.66c0.03,-0.02 0.05,-0.05 0.07,-0.07l0.92,-0.91l0,43.27l-2.68,1.86l0.09,-39.64c0,-0.36 -0.24,-0.69 -0.6,-0.79l-1.23,-0.34l3.43,-3.38zm-67.53,51.23l0.03,-0.06l0,64.51l-0.03,-0.03l0,-64.42zm1.16,-2l1.83,0l0,67.13l-1.83,0l0,-67.13zm2.97,67.21l0,-75.39l13.81,-35.29l0.11,76.75c0,0.02 0.01,0.03 0.01,0.04c0,0.04 0.02,0.09 0.03,0.13c0.01,0.05 0.03,0.1 0.05,0.15c0.01,0.01 0.01,0.02 0.01,0.04c0.01,0.02 0.04,0.04 0.05,0.06c0.03,0.04 0.06,0.08 0.11,0.12c0.03,0.03 0.07,0.05 0.11,0.07c0.04,0.02 0.08,0.04 0.12,0.06c0.05,0.02 0.11,0.03 0.16,0.03c0.02,0 0.04,0.01 0.07,0.01c0.01,0 0.02,-0.01 0.03,-0.01c0.06,0 0.12,-0.02 0.18,-0.04c0.03,-0.01 0.06,-0.02 0.09,-0.03c0.02,-0.01 0.04,-0.01 0.06,-0.02l109.24,-63l0,35.68l-123.56,42.78c-0.18,0.06 -0.32,0.24 -0.32,0.44l-0.12,17.46l-0.24,-0.04zm233.44,-0.37l1.81,0.52l0,10.87l-1.81,-0.09l0,-11.3zm3.5,10.62l-0.55,0.34l0,-10.32l0.53,0l0.02,9.98zm10.9,3.26l0,-13.66c0.16,-0.19 0.27,-0.42 0.28,-0.68l5.38,0l0,14.33l-5.66,0l0,0.01z" class="st1"/>
  <g id="svg_4">
   <g id="svg_5">
    <path id="svg_6" fill="#ffffff" d="m310.27,59.79c-0.02,0.23 -0.06,0.43 -0.1,0.61s0.02,0.33 0.19,0.45c0.17,0.12 0.31,0.21 0.42,0.28c0.11,0.07 0.3,0.13 0.58,0.17s0.5,0.07 0.65,0.09c0.15,0.01 0.38,0.03 0.68,0.05c0.09,0.09 0.14,0.29 0.14,0.6c0,0.31 -0.05,0.51 -0.14,0.6c-1.74,-0.05 -3.29,-0.07 -4.66,-0.07c-0.47,0 -1.57,0.02 -3.31,0.07c-0.11,-0.09 -0.17,-0.29 -0.17,-0.59s0.06,-0.51 0.17,-0.61c0.61,-0.05 1.08,-0.11 1.42,-0.21c0.34,-0.09 0.71,-0.31 1.1,-0.66c0.39,-0.35 0.72,-0.88 0.99,-1.58l7.6,-17.95c0.87,0 2.16,-0.52 3.87,-1.56l7.23,20.07c0.11,0.35 0.27,0.65 0.47,0.88c0.2,0.23 0.36,0.41 0.47,0.52c0.11,0.11 0.36,0.21 0.74,0.29c0.38,0.08 0.59,0.12 0.65,0.12s0.33,0.02 0.82,0.07c0.09,0.09 0.14,0.29 0.14,0.6c0,0.31 -0.05,0.51 -0.14,0.6c-1.74,-0.05 -3.3,-0.07 -4.69,-0.07c-2.27,0 -4.28,0.02 -6.01,0.07c-0.11,-0.09 -0.17,-0.29 -0.17,-0.59s0.06,-0.51 0.17,-0.61c0.14,0 0.32,-0.01 0.55,-0.02c0.23,-0.01 0.41,-0.02 0.53,-0.03c0.13,-0.01 0.28,-0.02 0.45,-0.03c0.18,-0.01 0.31,-0.03 0.4,-0.07c0.09,-0.03 0.2,-0.07 0.32,-0.1c0.12,-0.03 0.21,-0.09 0.27,-0.15c0.06,-0.07 0.1,-0.15 0.14,-0.25c0.03,-0.1 0.05,-0.2 0.03,-0.32c-0.01,-0.11 -0.04,-0.25 -0.09,-0.41l-1.97,-5.72l-6.66,0c-0.42,0 -0.71,0.04 -0.86,0.12s-0.27,0.24 -0.38,0.48l-1.84,4.86zm3.79,-7.16l5.33,0l-2.86,-8.31l-0.24,0l-3.12,7.84c-0.03,0.07 -0.05,0.13 -0.03,0.19c0.01,0.06 0.03,0.1 0.07,0.14c0.03,0.03 0.09,0.06 0.17,0.09c0.08,0.02 0.17,0.04 0.28,0.04c0.1,0.01 0.24,0.01 0.4,0.01z" class="st0"/>
    <path id="svg_7" fill="#ffffff" d="m342.93,39.63c2.53,0 4.44,0.38 5.72,1.14c1.76,1.07 2.63,2.67 2.62,4.8c0,1.63 -0.38,2.95 -1.14,3.95c-0.76,1 -1.68,1.74 -2.75,2.2l4.76,7.44c0.54,0.83 1.04,1.43 1.52,1.79c0.48,0.36 1.1,0.55 1.85,0.55c0.07,0.13 0.11,0.32 0.12,0.58c0.01,0.26 -0.02,0.44 -0.09,0.55c-0.38,0.18 -1.57,0.27 -3.58,0.27c-1.66,0 -3.2,-1.02 -4.62,-3.07l-4.07,-6.19c-0.26,-0.43 -0.6,-0.72 -1,-0.86s-1.26,-0.22 -2.58,-0.22l0,5.74c0,0.71 0.05,1.28 0.16,1.72c0.11,0.44 0.31,0.76 0.6,0.96c0.29,0.2 0.58,0.33 0.86,0.39c0.28,0.06 0.71,0.1 1.29,0.12c0.16,0.11 0.24,0.3 0.25,0.57c0.01,0.27 -0.08,0.46 -0.25,0.57c-1.87,-0.04 -3.65,-0.07 -5.33,-0.07c-1.74,0 -3.54,0.02 -5.41,0.07c-0.16,-0.11 -0.24,-0.32 -0.24,-0.61c0,-0.29 0.08,-0.49 0.24,-0.59c0.58,-0.02 1.02,-0.06 1.3,-0.12c0.29,-0.06 0.57,-0.19 0.86,-0.39c0.29,-0.2 0.49,-0.52 0.59,-0.94c0.1,-0.43 0.15,-1 0.15,-1.71l0,-14.08c0,-0.7 -0.05,-1.26 -0.15,-1.7c-0.1,-0.43 -0.3,-0.75 -0.59,-0.95c-0.29,-0.2 -0.58,-0.33 -0.86,-0.39c-0.28,-0.06 -0.72,-0.1 -1.31,-0.12c-0.16,-0.11 -0.24,-0.31 -0.24,-0.6s0.08,-0.48 0.24,-0.57c0.47,0 2.31,-0.04 5.53,-0.12s5.08,-0.11 5.55,-0.11zm3.42,6.55c0,-3.43 -1.52,-5.14 -4.56,-5.14c-0.89,0 -1.46,0.21 -1.72,0.63c-0.26,0.42 -0.39,1.25 -0.39,2.5l0,6.99l1.51,0c1.68,0 2.96,-0.33 3.84,-1c0.88,-0.66 1.32,-1.99 1.32,-3.98z" class="st0"/>
    <path id="svg_8" fill="#ffffff" d="m379.84,50.99c0,3.45 -0.96,6.26 -2.89,8.45c-0.75,0.84 -1.61,1.53 -2.59,2.09c-0.98,0.55 -2.06,0.95 -3.23,1.18c-1.19,0.32 -2.51,0.98 -3.96,1.97c0.09,0 0.16,0 0.21,0c1.06,0 2.16,0.27 3.29,0.8c1.13,0.54 2.21,1.07 3.24,1.61c1.02,0.54 1.95,0.81 2.79,0.81c1.24,0 2.18,-0.43 2.83,-1.28l0.6,0.77c-1.42,2.15 -3,3.22 -4.74,3.22c-1.02,0 -2.03,-0.19 -3.02,-0.58c-0.99,-0.39 -1.81,-0.81 -2.46,-1.26c-0.65,-0.45 -1.39,-0.87 -2.22,-1.26c-0.82,-0.39 -1.59,-0.58 -2.32,-0.58c-0.4,0 -0.83,0.16 -1.28,0.48c-0.46,0.51 -0.88,1.04 -1.27,1.59l-1.3,-1.06c0.03,-0.06 0.06,-0.11 0.1,-0.16c0.03,-0.05 0.07,-0.11 0.1,-0.16c0.04,-0.06 0.07,-0.11 0.11,-0.16c0.04,-0.05 0.08,-0.1 0.12,-0.15c0.04,-0.05 0.08,-0.11 0.13,-0.16c1.44,-1.75 3.21,-3.17 5.3,-4.26c-1.32,-0.14 -2.57,-0.5 -3.75,-1.08c-1.18,-0.59 -2.23,-1.34 -3.14,-2.28c-0.91,-0.93 -1.62,-2.08 -2.15,-3.43c-0.53,-1.35 -0.79,-2.81 -0.79,-4.38c0,-3.28 0.92,-6.04 2.75,-8.29c1,-1.23 2.22,-2.19 3.65,-2.89c1.43,-0.69 2.98,-1.04 4.65,-1.04c3.17,0 5.84,1.07 8,3.2c2.16,2.11 3.24,4.89 3.24,8.29zm-11.65,-10.11c-1.68,0 -3.06,0.83 -4.12,2.5c-1.07,1.67 -1.6,4.2 -1.6,7.6c0,3.22 0.65,5.77 1.95,7.64c1.3,1.87 2.94,2.81 4.93,2.81c1.76,0 3.13,-0.88 4.12,-2.64c0.98,-1.76 1.48,-4.12 1.48,-7.07c0,-3.45 -0.63,-6.12 -1.9,-8.01c-1.28,-1.88 -2.89,-2.83 -4.86,-2.83z" class="st0"/>
    <path id="svg_9" fill="#ffffff" d="m390.16,44.27l0,8.9c0,0.98 0.02,1.79 0.07,2.42c0.05,0.63 0.21,1.35 0.49,2.17s0.69,1.48 1.22,2c1.21,1.17 2.6,1.75 4.18,1.75c1.14,0 2.12,-0.18 2.95,-0.54c0.82,-0.36 1.46,-0.81 1.9,-1.33c0.45,-0.53 0.8,-1.2 1.05,-2.03c0.26,-0.82 0.41,-1.58 0.47,-2.27s0.09,-1.5 0.09,-2.44l0,-8.63c0,-0.76 -0.03,-1.33 -0.1,-1.71c-0.07,-0.39 -0.26,-0.68 -0.57,-0.89c-0.31,-0.21 -0.61,-0.35 -0.92,-0.41c-0.3,-0.06 -0.85,-0.12 -1.65,-0.19c-0.11,-0.11 -0.17,-0.31 -0.17,-0.6s0.06,-0.49 0.17,-0.6c2.34,0.05 3.83,0.07 4.47,0.07c0.21,0 1.46,-0.02 3.75,-0.07c0.11,0.11 0.17,0.31 0.17,0.59s-0.06,0.48 -0.17,0.61c-0.84,0.09 -1.41,0.19 -1.7,0.29c-0.29,0.11 -0.53,0.37 -0.72,0.81c-0.19,0.44 -0.28,1.14 -0.28,2.1l0,7.99c0,3.36 -0.73,5.97 -2.19,7.84c-1.46,1.87 -3.89,2.81 -7.28,2.81c-3.21,0 -5.57,-0.49 -7.09,-1.46c-2.03,-1.33 -3.05,-3.7 -3.05,-7.11l0,-10.07c0,-1.39 -0.17,-2.26 -0.51,-2.6c-0.34,-0.35 -1.07,-0.55 -2.2,-0.59c-0.09,-0.11 -0.14,-0.31 -0.14,-0.6s0.05,-0.49 0.14,-0.6c2.34,0.05 4.05,0.07 5.12,0.07c1.52,0 3.43,-0.02 5.72,-0.07c0.11,0.11 0.17,0.31 0.18,0.59s-0.05,0.48 -0.18,0.61c-1.4,0.05 -2.29,0.24 -2.66,0.58c-0.37,0.33 -0.56,1.2 -0.56,2.61z" class="st0"/>
    <path id="svg_10" fill="#ffffff" d="m413.06,44.22c0,-0.7 -0.05,-1.26 -0.15,-1.7c-0.1,-0.43 -0.3,-0.75 -0.59,-0.95c-0.29,-0.2 -0.58,-0.33 -0.86,-0.39c-0.28,-0.06 -0.72,-0.1 -1.31,-0.12c-0.16,-0.11 -0.24,-0.32 -0.24,-0.62c0,-0.3 0.08,-0.49 0.24,-0.58c1.87,0.05 3.68,0.07 5.41,0.07c1.68,0 3.45,-0.02 5.33,-0.07c0.16,0.09 0.24,0.28 0.25,0.57c0.01,0.29 -0.08,0.5 -0.25,0.63c-0.58,0.02 -1.01,0.06 -1.29,0.12c-0.28,0.06 -0.57,0.19 -0.86,0.39c-0.29,0.2 -0.49,0.51 -0.6,0.94c-0.11,0.43 -0.16,1 -0.16,1.7l0,14.06c0,0.7 0.05,1.26 0.16,1.7c0.11,0.43 0.31,0.75 0.6,0.95c0.29,0.2 0.58,0.33 0.86,0.39c0.28,0.06 0.71,0.1 1.29,0.12c0.16,0.11 0.24,0.31 0.25,0.6s-0.08,0.49 -0.25,0.6c-1.87,-0.05 -3.65,-0.07 -5.33,-0.07c-1.74,0 -3.54,0.02 -5.41,0.07c-0.16,-0.11 -0.24,-0.32 -0.24,-0.61c0,-0.29 0.08,-0.49 0.24,-0.59c0.58,-0.02 1.02,-0.06 1.3,-0.12c0.29,-0.06 0.57,-0.19 0.86,-0.39c0.29,-0.2 0.49,-0.51 0.59,-0.94c0.1,-0.43 0.15,-1 0.15,-1.7l0,-14.06l0.01,0z" class="st0"/>
    <path id="svg_11" fill="#ffffff" d="m436.47,62.17c-0.21,0.55 -0.6,0.82 -1.18,0.82c-0.57,-0.01 -0.96,-0.29 -1.16,-0.82l-7.64,-19.22c-0.22,-0.51 -0.51,-0.91 -0.86,-1.19c-0.36,-0.28 -0.69,-0.45 -0.98,-0.51c-0.3,-0.06 -0.74,-0.12 -1.32,-0.19c-0.09,-0.13 -0.14,-0.33 -0.14,-0.61s0.05,-0.48 0.14,-0.59c1.74,0.05 3.31,0.07 4.71,0.07c2.38,0 4.43,-0.02 6.17,-0.07c0.09,0.11 0.14,0.31 0.14,0.6s-0.05,0.49 -0.14,0.6c-0.49,0.02 -0.88,0.06 -1.17,0.1s-0.58,0.11 -0.87,0.21c-0.29,0.09 -0.48,0.22 -0.56,0.39c-0.08,0.17 -0.07,0.4 0.02,0.69l4.35,12.54l0.53,1.58l0.58,-1.37l4.85,-12.49c0.16,-0.42 0.11,-0.76 -0.15,-1c-0.26,-0.25 -0.56,-0.4 -0.92,-0.47s-0.81,-0.13 -1.37,-0.17c-0.11,-0.13 -0.17,-0.33 -0.17,-0.61s0.06,-0.48 0.17,-0.59c1.74,0.05 3.29,0.07 4.68,0.07c0.46,0 1.55,-0.02 3.29,-0.07c0.1,0.11 0.15,0.31 0.15,0.6s-0.05,0.49 -0.15,0.6c-0.91,0.07 -1.62,0.25 -2.13,0.56c-0.51,0.3 -0.96,0.93 -1.36,1.89l-7.51,18.65z" class="st0"/>
    <path id="svg_12" fill="#ffffff" d="m470.41,51.02c0,3.44 -0.97,6.25 -2.92,8.43c-2.08,2.32 -4.84,3.47 -8.29,3.46c-3.01,0 -5.61,-1.03 -7.8,-3.08c-2.2,-2.05 -3.29,-4.75 -3.29,-8.1c0,-3.29 0.92,-6.06 2.75,-8.31c1,-1.23 2.22,-2.2 3.65,-2.89c1.43,-0.7 2.98,-1.04 4.65,-1.04c3.17,0 5.84,1.07 8,3.21c2.17,2.13 3.25,4.91 3.25,8.32zm-11.65,-10.14c-1.68,0 -3.06,0.84 -4.12,2.51c-1.07,1.67 -1.6,4.22 -1.6,7.63c0,3.23 0.65,5.78 1.95,7.66c1.3,1.88 2.94,2.82 4.93,2.82c1.76,0 3.13,-0.88 4.12,-2.65c0.98,-1.76 1.48,-4.13 1.48,-7.1c0,-3.46 -0.63,-6.14 -1.9,-8.03c-1.28,-1.89 -2.9,-2.84 -4.86,-2.84z" class="st0"/>
    <path id="svg_13" fill="#ffffff" d="m493.05,49.76c1.21,0 2.03,-0.14 2.47,-0.42c0.44,-0.28 0.68,-0.89 0.73,-1.82c0.11,-0.11 0.37,-0.17 0.77,-0.17c0.4,0 0.65,0.06 0.74,0.17c-0.05,1.4 -0.07,2.41 -0.07,3.03c0,0.43 0.02,1.46 0.07,3.1c-0.09,0.1 -0.34,0.15 -0.74,0.15c-0.4,0 -0.66,-0.06 -0.77,-0.17c-0.05,-0.82 -0.3,-1.4 -0.75,-1.74c-0.46,-0.34 -1.27,-0.51 -2.44,-0.51l-2.83,0l0,8.09c0,0.47 0.14,0.87 0.43,1.2c0.28,0.33 0.62,0.49 1.01,0.49l3.54,0c2.45,0 4.1,-1.51 4.94,-4.52c0.58,-0.14 1.11,-0.08 1.58,0.17c-0.05,0.36 -0.12,0.96 -0.22,1.82c-0.1,0.86 -0.21,1.61 -0.33,2.26s-0.25,1.23 -0.39,1.74c-2.1,-0.05 -3.71,-0.07 -4.84,-0.07l-8.23,0c-2.47,0.02 -4.29,0.05 -5.44,0.07c-0.09,-0.09 -0.14,-0.29 -0.14,-0.59s0.05,-0.51 0.14,-0.61c1.3,-0.05 2.14,-0.24 2.5,-0.57c0.36,-0.34 0.55,-1.2 0.55,-2.58l0,-14.03c0,-1.4 -0.18,-2.28 -0.55,-2.61c-0.37,-0.34 -1.2,-0.53 -2.52,-0.57c-0.09,-0.11 -0.14,-0.31 -0.14,-0.6s0.05,-0.49 0.14,-0.6l5.41,0.07l10.35,0c0.61,0 1.18,-0.05 1.71,-0.14c0.09,0 0.14,0.03 0.15,0.1c0.02,0.07 0.06,0.42 0.1,1.06c0.05,0.64 0.1,1.37 0.15,2.18c0.06,0.81 0.11,1.42 0.15,1.82c-0.42,0.21 -0.92,0.27 -1.51,0.17c-0.42,-1.37 -0.91,-2.35 -1.47,-2.93c-0.56,-0.58 -1.45,-0.86 -2.67,-0.86l-2.97,0c-0.4,0 -0.74,0.18 -1.02,0.53c-0.28,0.35 -0.42,0.75 -0.42,1.2l0,6.68l2.83,0l0,0.01z" class="st0"/>
   </g>
   <g id="svg_14">
    <path id="svg_15" fill="#ffffff" d="m310.19,75.14c0.33,0 1.09,-0.01 2.27,-0.03c1.18,-0.02 2.09,-0.03 2.71,-0.03c5.58,0 8.38,1.83 8.39,5.49c0,0.9 -0.32,1.78 -0.97,2.65c-0.65,0.87 -1.45,1.52 -2.41,1.94l0,0.07c1.74,0.49 3.01,1.23 3.82,2.23c0.8,0.99 1.2,2.27 1.2,3.83c0,1.98 -0.73,3.57 -2.17,4.76c-1.45,1.2 -3.81,1.8 -7.1,1.8c-0.78,0 -1.83,-0.01 -3.16,-0.03s-2.2,-0.03 -2.59,-0.03l-5.4,0.07c-0.16,-0.09 -0.24,-0.29 -0.24,-0.59c0,-0.3 0.08,-0.51 0.24,-0.61c0.58,-0.02 1.01,-0.06 1.29,-0.12c0.28,-0.06 0.57,-0.19 0.86,-0.39c0.29,-0.2 0.49,-0.51 0.6,-0.94c0.11,-0.43 0.16,-1 0.16,-1.7l0,-14.09c0,-0.7 -0.05,-1.26 -0.16,-1.7c-0.11,-0.43 -0.31,-0.75 -0.6,-0.95c-0.29,-0.2 -0.58,-0.33 -0.86,-0.39c-0.28,-0.06 -0.71,-0.1 -1.29,-0.12c-0.16,-0.11 -0.24,-0.32 -0.24,-0.62c0,-0.3 0.08,-0.49 0.24,-0.58c2.67,0.06 4.47,0.08 5.41,0.08zm2.43,2.87l0,6.64l1.95,0c2.72,0 4.08,-1.34 4.08,-4.03c0,-2.76 -1.19,-4.14 -3.58,-4.14c-1.05,0 -1.72,0.11 -2.01,0.34c-0.3,0.22 -0.44,0.62 -0.44,1.19zm0,8.04l0,8.83c0,0.57 0.14,0.96 0.42,1.2c0.28,0.24 0.91,0.35 1.89,0.35c1.1,0 2.02,-0.16 2.77,-0.49c0.75,-0.33 1.3,-0.77 1.65,-1.33c0.35,-0.56 0.6,-1.11 0.74,-1.65c0.14,-0.54 0.21,-1.12 0.21,-1.72c0,-1.6 -0.43,-2.86 -1.29,-3.79s-2.16,-1.4 -3.9,-1.4l-2.49,0z" class="st0"/>
    <path id="svg_16" fill="#ffffff" d="m331.4,79.42c0,-0.7 -0.05,-1.26 -0.15,-1.7s-0.3,-0.75 -0.59,-0.95c-0.29,-0.2 -0.58,-0.33 -0.86,-0.39c-0.28,-0.06 -0.72,-0.1 -1.31,-0.12c-0.16,-0.11 -0.24,-0.32 -0.24,-0.62c0,-0.3 0.08,-0.49 0.24,-0.58c1.87,0.05 3.68,0.07 5.41,0.07c1.68,0 3.45,-0.02 5.33,-0.07c0.16,0.09 0.24,0.28 0.25,0.57s-0.08,0.5 -0.25,0.63c-0.58,0.02 -1.01,0.06 -1.29,0.12c-0.28,0.06 -0.57,0.19 -0.86,0.39c-0.29,0.2 -0.49,0.51 -0.6,0.94c-0.11,0.43 -0.16,1 -0.16,1.7l0,14.06c0,0.7 0.05,1.26 0.16,1.7c0.11,0.43 0.31,0.75 0.6,0.95c0.29,0.2 0.58,0.33 0.86,0.39c0.28,0.06 0.71,0.1 1.29,0.12c0.16,0.11 0.24,0.31 0.25,0.6s-0.08,0.49 -0.25,0.6c-1.87,-0.05 -3.65,-0.07 -5.33,-0.07c-1.74,0 -3.54,0.02 -5.41,0.07c-0.16,-0.11 -0.24,-0.32 -0.24,-0.61s0.08,-0.49 0.24,-0.59c0.58,-0.02 1.02,-0.06 1.3,-0.12c0.29,-0.06 0.57,-0.19 0.86,-0.39c0.29,-0.2 0.49,-0.51 0.59,-0.94s0.15,-1 0.15,-1.7l0,-14.06l0.01,0z" class="st0"/>
    <path stroke="null" id="svg_17" fill="#ffffff" d="m347.52,75.14c0.33,0 1.09,-0.01 2.27,-0.03c1.18,-0.02 2.09,-0.03 2.71,-0.03c5.58,0 8.38,1.83 8.39,5.49c0,0.9 -0.32,1.78 -0.97,2.65c-0.65,0.87 -1.45,1.52 -2.41,1.94l0,0.07c1.74,0.49 3.01,1.23 3.82,2.23c0.8,0.99 1.2,2.27 1.2,3.83c0,1.98 -0.73,3.57 -2.17,4.76c-1.45,1.2 -3.81,1.8 -7.1,1.8c-0.78,0 -1.83,-0.01 -3.16,-0.03c-1.33,-0.02 -2.2,-0.03 -2.59,-0.03l-5.4,0.07c-0.16,-0.09 -0.24,-0.29 -0.24,-0.59c0,-0.3 0.08,-0.51 0.24,-0.61c0.58,-0.02 1.01,-0.06 1.29,-0.12c0.28,-0.06 0.57,-0.19 0.86,-0.39c0.29,-0.2 0.49,-0.51 0.6,-0.94c0.11,-0.43 0.16,-1 0.16,-1.7l0,-14.09c0,-0.7 -0.05,-1.26 -0.16,-1.7c-0.11,-0.43 -0.31,-0.75 -0.6,-0.95c-0.29,-0.2 -0.58,-0.33 -0.86,-0.39c-0.28,-0.06 -0.71,-0.1 -1.29,-0.12c-0.16,-0.11 -0.24,-0.32 -0.24,-0.62c0,-0.3 0.08,-0.49 0.24,-0.58c2.68,0.06 4.48,0.08 5.41,0.08zm2.44,2.87l0,6.64l1.95,0c2.72,0 4.08,-1.34 4.08,-4.03c0,-2.76 -1.19,-4.14 -3.58,-4.14c-1.05,0 -1.72,0.11 -2.01,0.34c-0.3,0.22 -0.44,0.62 -0.44,1.19zm0,8.04l0,8.83c0,0.57 0.14,0.96 0.42,1.2c0.28,0.24 0.91,0.35 1.89,0.35c1.1,0 2.02,-0.16 2.77,-0.49c0.75,-0.33 1.3,-0.77 1.65,-1.33c0.35,-0.56 0.6,-1.11 0.74,-1.65c0.14,-0.54 0.21,-1.12 0.21,-1.72c0,-1.6 -0.43,-2.86 -1.29,-3.79s-2.16,-1.4 -3.9,-1.4l-2.49,0z" class="st0"/>
    <path id="svg_18" fill="#ffffff" d="m376.99,96.36c1.71,0 2.99,-0.39 3.83,-1.18s1.46,-1.9 1.86,-3.33c0.58,-0.09 1.08,-0.03 1.51,0.17c-0.23,2.01 -0.54,3.95 -0.92,5.8c-2.12,-0.05 -3.52,-0.07 -4.2,-0.07l-7.84,0c-0.9,0 -2.7,0.02 -5.4,0.07c-0.16,-0.11 -0.24,-0.32 -0.24,-0.61s0.08,-0.49 0.24,-0.59c0.58,-0.02 1.02,-0.06 1.3,-0.12c0.29,-0.06 0.57,-0.19 0.86,-0.39c0.29,-0.2 0.49,-0.51 0.59,-0.94c0.1,-0.43 0.15,-1 0.15,-1.7l0,-14.05c0,-0.7 -0.05,-1.26 -0.15,-1.7c-0.1,-0.43 -0.3,-0.75 -0.59,-0.95c-0.29,-0.2 -0.58,-0.33 -0.86,-0.39c-0.28,-0.06 -0.72,-0.1 -1.31,-0.12c-0.16,-0.11 -0.24,-0.32 -0.24,-0.62c0,-0.3 0.08,-0.49 0.24,-0.58c2.66,0.05 4.46,0.07 5.41,0.07c0.42,0 0.85,-0.01 1.28,-0.02c0.43,-0.01 1.03,-0.02 1.79,-0.03c0.76,-0.01 1.51,-0.02 2.25,-0.02c0.16,0.09 0.24,0.28 0.25,0.57s-0.08,0.5 -0.25,0.63c-0.58,0.02 -1.01,0.06 -1.29,0.12c-0.28,0.06 -0.57,0.19 -0.86,0.39c-0.29,0.2 -0.49,0.51 -0.6,0.94c-0.11,0.43 -0.16,1 -0.16,1.71l0,14.14c0,1.86 0.41,2.78 1.23,2.78l2.12,0l0,0.02z" class="st0"/>
    <path id="svg_19" fill="#ffffff" d="m389.31,79.42c0,-0.7 -0.05,-1.26 -0.15,-1.7c-0.1,-0.43 -0.3,-0.75 -0.59,-0.95c-0.29,-0.2 -0.58,-0.33 -0.86,-0.39c-0.28,-0.06 -0.72,-0.1 -1.31,-0.12c-0.16,-0.11 -0.24,-0.32 -0.24,-0.62c0,-0.3 0.08,-0.49 0.24,-0.58c1.87,0.05 3.68,0.07 5.41,0.07c1.68,0 3.45,-0.02 5.33,-0.07c0.16,0.09 0.24,0.28 0.25,0.57s-0.08,0.5 -0.25,0.63c-0.58,0.02 -1.01,0.06 -1.29,0.12c-0.28,0.06 -0.57,0.19 -0.86,0.39c-0.29,0.2 -0.49,0.51 -0.6,0.94c-0.11,0.43 -0.16,1 -0.16,1.7l0,14.06c0,0.7 0.05,1.26 0.16,1.7c0.11,0.43 0.31,0.75 0.6,0.95c0.29,0.2 0.58,0.33 0.86,0.39c0.28,0.06 0.71,0.1 1.29,0.12c0.16,0.11 0.24,0.31 0.25,0.6s-0.08,0.49 -0.25,0.6c-1.87,-0.05 -3.65,-0.07 -5.33,-0.07c-1.74,0 -3.54,0.02 -5.41,0.07c-0.16,-0.11 -0.24,-0.32 -0.24,-0.61s0.08,-0.49 0.24,-0.59c0.58,-0.02 1.02,-0.06 1.3,-0.12c0.29,-0.06 0.57,-0.19 0.86,-0.39c0.29,-0.2 0.49,-0.51 0.59,-0.94c0.1,-0.43 0.15,-1 0.15,-1.7l0,-14.06l0.01,0z" class="st0"/>
    <path id="svg_20" fill="#ffffff" d="m422.14,86.22c0,3.44 -0.97,6.25 -2.92,8.43c-2.08,2.32 -4.84,3.47 -8.29,3.46c-3.01,0 -5.61,-1.03 -7.8,-3.08c-2.2,-2.05 -3.29,-4.75 -3.29,-8.1c0,-3.29 0.92,-6.06 2.75,-8.31c1,-1.23 2.22,-2.2 3.65,-2.89c1.43,-0.7 2.98,-1.04 4.65,-1.04c3.17,0 5.84,1.07 8,3.21s3.25,4.91 3.25,8.32zm-11.66,-10.14c-1.68,0 -3.06,0.84 -4.12,2.51c-1.07,1.67 -1.6,4.22 -1.6,7.63c0,3.23 0.65,5.78 1.95,7.66c1.3,1.88 2.94,2.82 4.93,2.82c1.76,0 3.13,-0.88 4.12,-2.65c0.98,-1.76 1.48,-4.13 1.48,-7.1c0,-3.46 -0.63,-6.14 -1.9,-8.03c-1.28,-1.89 -2.89,-2.84 -4.86,-2.84z" class="st0"/>
    <path id="svg_21" fill="#ffffff" d="m438.54,93.45c0,1.4 0.2,2.28 0.6,2.61c0.4,0.34 1.33,0.53 2.79,0.57c0.09,0.09 0.14,0.29 0.14,0.6c0,0.31 -0.05,0.51 -0.14,0.6c-2.34,-0.05 -4.31,-0.07 -5.92,-0.07c-1.56,0 -3.49,0.02 -5.78,0.07c-0.09,-0.09 -0.14,-0.29 -0.14,-0.59c0,-0.3 0.05,-0.51 0.14,-0.61c1.46,-0.05 2.4,-0.24 2.79,-0.57c0.4,-0.34 0.6,-1.21 0.6,-2.61l0,-13.43c0,-1.14 -0.12,-2.01 -0.37,-2.59c-0.25,-0.59 -0.68,-0.88 -1.29,-0.88l-1.71,0c-1.19,0 -2.14,0.28 -2.85,0.84c-0.71,0.56 -1.25,1.52 -1.6,2.88c-0.61,0 -1.06,-0.06 -1.37,-0.17c0.47,-2.01 0.76,-3.72 0.87,-5.12c0,-0.07 0.05,-0.1 0.15,-0.1c2.36,0.18 5.09,0.27 8.17,0.27l4.95,0c3.11,0 5.73,-0.09 7.86,-0.27c0.07,0 0.1,0.03 0.1,0.1c0.02,1.56 0.18,3.24 0.46,5.02c-0.26,0.11 -0.72,0.17 -1.37,0.17c-0.29,-1.31 -0.8,-2.24 -1.55,-2.79c-0.75,-0.55 -1.8,-0.82 -3.14,-0.82l-0.77,0c-0.61,0 -1.03,0.3 -1.27,0.89c-0.24,0.59 -0.36,1.49 -0.36,2.69l0,13.31l0.01,0z" class="st0"/>
    <path id="svg_22" fill="#ffffff" d="m459.54,84.95c1.21,0 2.03,-0.14 2.47,-0.42c0.44,-0.28 0.68,-0.89 0.73,-1.82c0.11,-0.11 0.37,-0.17 0.77,-0.17c0.4,0 0.65,0.06 0.74,0.17c-0.05,1.4 -0.07,2.42 -0.07,3.03c0,0.43 0.02,1.46 0.07,3.1c-0.09,0.1 -0.34,0.15 -0.74,0.15c-0.4,0 -0.66,-0.06 -0.77,-0.17c-0.05,-0.82 -0.3,-1.4 -0.75,-1.74c-0.46,-0.34 -1.27,-0.51 -2.44,-0.51l-2.83,0l0,8.09c0,0.47 0.14,0.87 0.43,1.2c0.28,0.33 0.62,0.49 1.01,0.49l3.54,0c2.45,0 4.1,-1.51 4.94,-4.52c0.58,-0.14 1.11,-0.08 1.58,0.17c-0.05,0.36 -0.12,0.96 -0.22,1.82c-0.1,0.86 -0.21,1.61 -0.33,2.26c-0.12,0.65 -0.25,1.23 -0.39,1.74c-2.1,-0.05 -3.71,-0.07 -4.84,-0.07l-8.23,0c-2.47,0.02 -4.29,0.05 -5.44,0.07c-0.09,-0.09 -0.14,-0.29 -0.14,-0.59c0,-0.3 0.05,-0.51 0.14,-0.61c1.3,-0.05 2.14,-0.24 2.5,-0.57c0.36,-0.34 0.55,-1.2 0.55,-2.58l0,-14.03c0,-1.4 -0.18,-2.28 -0.55,-2.61c-0.37,-0.34 -1.2,-0.53 -2.52,-0.57c-0.09,-0.11 -0.14,-0.31 -0.14,-0.6s0.05,-0.49 0.14,-0.6l5.41,0.07l10.35,0c0.61,0 1.18,-0.05 1.71,-0.14c0.09,0 0.14,0.03 0.15,0.1c0.02,0.07 0.06,0.42 0.1,1.06c0.05,0.64 0.1,1.37 0.15,2.18c0.06,0.81 0.11,1.42 0.15,1.82c-0.42,0.21 -0.92,0.27 -1.51,0.17c-0.42,-1.37 -0.91,-2.35 -1.47,-2.93c-0.56,-0.58 -1.45,-0.86 -2.67,-0.86l-2.97,0c-0.4,0 -0.74,0.18 -1.02,0.53c-0.28,0.35 -0.42,0.75 -0.42,1.2l0,6.68l2.83,0l0,0.01z" class="st0"/>
    <path id="svg_23" fill="#ffffff" d="m483.45,98.11c-3.53,0 -6.29,-0.74 -8.3,-2.22c-1.26,-0.96 -2.24,-2.3 -2.92,-4.01c-0.68,-1.71 -1.02,-3.45 -1.02,-5.2c0,-3.71 1.15,-6.64 3.44,-8.79s5.24,-3.22 8.84,-3.22c1.68,0 3.32,0.25 4.92,0.75s2.53,0.76 2.77,0.78c0.4,2.46 0.66,4.28 0.77,5.45c-0.51,0.29 -1.02,0.34 -1.51,0.17c-0.54,-1.81 -1.34,-3.22 -2.42,-4.23c-1.08,-1.01 -2.71,-1.51 -4.91,-1.51c-2.06,0 -3.73,0.96 -5.04,2.87c-1.3,1.92 -1.95,4.27 -1.95,7.07c0,2.77 0.71,5.18 2.14,7.22c1.43,2.04 3.15,3.06 5.16,3.06c2.97,0 5.57,-1.22 7.79,-3.66c0.18,0 0.4,0.08 0.64,0.25c0.25,0.17 0.41,0.33 0.51,0.49c-2.42,3.15 -5.38,4.73 -8.91,4.73z" class="st0"/>
    <path id="svg_24" fill="#ffffff" d="m500.79,94.99c-0.02,0.23 -0.06,0.43 -0.1,0.61c-0.05,0.18 0.02,0.33 0.19,0.45s0.31,0.21 0.42,0.28c0.11,0.07 0.3,0.13 0.58,0.17c0.28,0.05 0.5,0.07 0.65,0.09s0.38,0.03 0.68,0.05c0.09,0.09 0.14,0.29 0.14,0.6c0,0.31 -0.05,0.51 -0.14,0.6c-1.74,-0.05 -3.29,-0.07 -4.66,-0.07c-0.47,0 -1.57,0.02 -3.31,0.07c-0.11,-0.09 -0.17,-0.29 -0.17,-0.59c0,-0.3 0.06,-0.51 0.17,-0.61c0.61,-0.05 1.08,-0.11 1.42,-0.21c0.34,-0.09 0.71,-0.31 1.1,-0.66c0.39,-0.35 0.72,-0.88 0.99,-1.58l7.6,-17.95c0.87,0 2.16,-0.52 3.87,-1.56l7.23,20.07c0.11,0.35 0.27,0.65 0.47,0.88c0.2,0.23 0.36,0.41 0.47,0.52c0.11,0.11 0.36,0.21 0.74,0.29c0.38,0.08 0.59,0.12 0.65,0.12c0.06,0 0.33,0.02 0.82,0.07c0.09,0.09 0.14,0.29 0.14,0.6c0,0.31 -0.05,0.51 -0.14,0.6c-1.74,-0.05 -3.3,-0.07 -4.69,-0.07c-2.27,0 -4.28,0.02 -6.01,0.07c-0.11,-0.09 -0.17,-0.29 -0.17,-0.59c0,-0.3 0.06,-0.51 0.17,-0.61c0.14,0 0.32,-0.01 0.55,-0.02c0.23,-0.01 0.41,-0.02 0.53,-0.03s0.28,-0.02 0.45,-0.03c0.18,-0.01 0.31,-0.03 0.4,-0.07s0.2,-0.07 0.32,-0.1c0.12,-0.03 0.21,-0.09 0.27,-0.15c0.06,-0.07 0.1,-0.15 0.14,-0.25s0.05,-0.2 0.03,-0.32s-0.04,-0.25 -0.09,-0.41l-1.97,-5.72l-6.66,0c-0.42,0 -0.71,0.04 -0.86,0.12c-0.15,0.08 -0.27,0.24 -0.38,0.48l-1.84,4.86zm3.78,-7.16l5.33,0l-2.86,-8.31l-0.24,0l-3.12,7.84c-0.03,0.07 -0.05,0.13 -0.03,0.19s0.03,0.1 0.07,0.14s0.09,0.06 0.17,0.09c0.08,0.02 0.17,0.04 0.28,0.04c0.11,0.01 0.24,0.01 0.4,0.01z" class="st0"/>
   </g>
   <g id="svg_25">
    <path id="svg_26" fill="#ffffff" d="m310.2,132.95l-5.41,0.07c-0.16,-0.11 -0.24,-0.32 -0.24,-0.61c0,-0.29 0.08,-0.49 0.24,-0.59c0.58,-0.02 1.02,-0.06 1.3,-0.12s0.57,-0.19 0.86,-0.39c0.29,-0.2 0.49,-0.51 0.59,-0.94c0.1,-0.43 0.15,-1 0.15,-1.7l0,-14.06c0,-0.7 -0.05,-1.26 -0.15,-1.7c-0.1,-0.43 -0.3,-0.75 -0.59,-0.95c-0.29,-0.2 -0.58,-0.33 -0.86,-0.39c-0.28,-0.06 -0.72,-0.1 -1.31,-0.12c-0.16,-0.11 -0.24,-0.32 -0.24,-0.62c0,-0.3 0.08,-0.49 0.24,-0.58c2.66,0.05 4.46,0.07 5.41,0.07c0.42,0 1.15,-0.01 2.19,-0.02c1.04,-0.01 1.88,-0.02 2.53,-0.02c4.01,0 7.09,1.11 9.24,3.33c2.15,2.22 3.23,5.05 3.23,8.49c0,1.76 -0.25,3.34 -0.75,4.74c-0.5,1.4 -1.17,2.47 -2.01,3.22c-2.18,1.96 -5.1,2.95 -8.76,2.95c-0.47,0 -1.42,-0.01 -2.84,-0.03s-2.35,-0.03 -2.82,-0.03zm2.42,-4.13c0,1.13 0.24,1.88 0.72,2.24c0.48,0.37 1.36,0.55 2.65,0.55c0.72,0 1.44,-0.15 2.15,-0.46c0.71,-0.31 1.4,-0.78 2.07,-1.42c0.67,-0.64 1.21,-1.54 1.64,-2.71c0.42,-1.17 0.63,-2.51 0.63,-4.04c0,-1.22 -0.04,-2.3 -0.13,-3.24c-0.09,-0.94 -0.29,-1.94 -0.6,-3c-0.31,-1.06 -0.73,-1.93 -1.26,-2.63c-0.53,-0.7 -1.27,-1.27 -2.24,-1.73c-0.97,-0.46 -2.12,-0.69 -3.46,-0.69c-1.45,0 -2.18,0.88 -2.18,2.65l0,14.48l0.01,0z" class="st0"/>
    <path id="svg_27" fill="#ffffff" d="m334.58,130.17c-0.02,0.23 -0.06,0.43 -0.1,0.61c-0.05,0.18 0.02,0.33 0.19,0.45s0.31,0.21 0.42,0.28c0.11,0.07 0.3,0.13 0.58,0.17c0.28,0.05 0.5,0.07 0.65,0.09c0.15,0.01 0.38,0.03 0.68,0.05c0.09,0.09 0.14,0.29 0.14,0.6s-0.05,0.51 -0.14,0.6c-1.74,-0.05 -3.29,-0.07 -4.66,-0.07c-0.47,0 -1.57,0.02 -3.31,0.07c-0.11,-0.09 -0.17,-0.29 -0.17,-0.59s0.06,-0.51 0.17,-0.61c0.61,-0.05 1.08,-0.11 1.42,-0.21s0.71,-0.31 1.1,-0.66c0.39,-0.35 0.72,-0.88 0.99,-1.58l7.6,-17.95c0.87,0 2.16,-0.52 3.87,-1.56l7.23,20.07c0.11,0.35 0.27,0.65 0.47,0.88c0.2,0.23 0.36,0.41 0.47,0.52c0.11,0.11 0.36,0.21 0.74,0.29s0.59,0.12 0.65,0.12s0.33,0.02 0.82,0.07c0.09,0.09 0.14,0.29 0.14,0.6s-0.05,0.51 -0.14,0.6c-1.74,-0.05 -3.3,-0.07 -4.69,-0.07c-2.27,0 -4.28,0.02 -6.01,0.07c-0.11,-0.09 -0.17,-0.29 -0.17,-0.59s0.06,-0.51 0.17,-0.61c0.14,0 0.32,-0.01 0.55,-0.02c0.23,-0.01 0.41,-0.02 0.53,-0.03c0.13,-0.01 0.28,-0.02 0.45,-0.03c0.18,-0.01 0.31,-0.03 0.4,-0.07c0.09,-0.03 0.2,-0.07 0.32,-0.1c0.12,-0.03 0.21,-0.09 0.27,-0.15s0.1,-0.15 0.14,-0.25c0.03,-0.1 0.05,-0.2 0.03,-0.32s-0.04,-0.25 -0.09,-0.41l-1.97,-5.72l-6.66,0c-0.42,0 -0.71,0.04 -0.86,0.12c-0.15,0.08 -0.27,0.24 -0.38,0.48l-1.84,4.86zm3.79,-7.16l5.33,0l-2.86,-8.31l-0.24,0l-3.12,7.84c-0.03,0.07 -0.05,0.13 -0.03,0.19s0.03,0.1 0.07,0.14c0.03,0.03 0.09,0.06 0.17,0.09c0.08,0.02 0.17,0.04 0.28,0.04c0.11,0.01 0.24,0.01 0.4,0.01z" class="st0"/>
    <path id="svg_28" fill="#ffffff" d="m387.46,128.87l-0.9,-14.66l-0.09,0l-8.07,18.57c-0.14,0.31 -0.37,0.46 -0.69,0.45c-0.36,0 -0.6,-0.15 -0.72,-0.45l-7.07,-17.3l-0.14,-0.03l-0.92,13.15c-0.07,1.11 0.03,1.9 0.29,2.37c0.27,0.47 0.94,0.76 2.02,0.85c0.09,0.09 0.14,0.29 0.14,0.6s-0.05,0.51 -0.14,0.6c-1.4,-0.05 -2.63,-0.07 -3.67,-0.07c-0.55,0 -1.54,0.02 -2.95,0.07c-0.09,-0.09 -0.14,-0.29 -0.14,-0.59s0.05,-0.51 0.14,-0.61c0.96,-0.08 1.61,-0.34 1.95,-0.79c0.34,-0.45 0.57,-1.22 0.69,-2.33l1.41,-14.46c0.12,-1.29 0.06,-2.06 -0.18,-2.31c-0.24,-0.25 -0.97,-0.41 -2.2,-0.48c-0.11,-0.11 -0.17,-0.31 -0.18,-0.6s0.05,-0.49 0.18,-0.6l7.23,0.07l6.31,15.57l0.17,0l6.73,-15.57l7.07,-0.07c0.11,0.11 0.17,0.31 0.17,0.59c0,0.28 -0.06,0.48 -0.17,0.61c-1.15,0.07 -1.86,0.25 -2.12,0.55c-0.26,0.3 -0.36,0.94 -0.29,1.92l1.07,14.76c0.04,0.56 0.07,0.98 0.09,1.25c0.02,0.27 0.08,0.55 0.17,0.82c0.09,0.28 0.18,0.46 0.26,0.55c0.08,0.09 0.24,0.19 0.47,0.28c0.23,0.1 0.46,0.16 0.69,0.17c0.22,0.02 0.56,0.03 1.02,0.04c0.11,0.09 0.17,0.29 0.17,0.6s-0.06,0.51 -0.17,0.6c-1.54,-0.05 -2.83,-0.07 -3.86,-0.07c-1.77,0 -3.77,0.02 -5.98,0.07c-0.11,-0.09 -0.17,-0.29 -0.17,-0.59s0.06,-0.51 0.17,-0.61c0.47,-0.02 0.79,-0.04 0.98,-0.04c0.18,-0.01 0.39,-0.05 0.63,-0.14c0.24,-0.09 0.39,-0.17 0.44,-0.26s0.11,-0.25 0.17,-0.51c0.06,-0.25 0.09,-0.51 0.08,-0.79c-0.03,-0.24 -0.05,-0.64 -0.09,-1.18z" class="st0"/>
    <path id="svg_29" fill="#ffffff" d="m401.89,130.17c-0.02,0.23 -0.06,0.43 -0.1,0.61c-0.05,0.18 0.02,0.33 0.19,0.45s0.31,0.21 0.42,0.28c0.11,0.07 0.3,0.13 0.58,0.17c0.28,0.05 0.5,0.07 0.65,0.09s0.38,0.03 0.68,0.05c0.09,0.09 0.14,0.29 0.14,0.6s-0.05,0.51 -0.14,0.6c-1.74,-0.05 -3.29,-0.07 -4.66,-0.07c-0.47,0 -1.57,0.02 -3.31,0.07c-0.11,-0.09 -0.17,-0.29 -0.17,-0.59s0.06,-0.51 0.17,-0.61c0.61,-0.05 1.08,-0.11 1.42,-0.21s0.71,-0.31 1.1,-0.66c0.39,-0.35 0.72,-0.88 0.99,-1.58l7.6,-17.95c0.87,0 2.16,-0.52 3.87,-1.56l7.23,20.07c0.11,0.35 0.27,0.65 0.47,0.88c0.2,0.23 0.36,0.41 0.47,0.52c0.11,0.11 0.36,0.21 0.74,0.29s0.59,0.12 0.65,0.12s0.33,0.02 0.82,0.07c0.09,0.09 0.14,0.29 0.14,0.6s-0.05,0.51 -0.14,0.6c-1.74,-0.05 -3.3,-0.07 -4.69,-0.07c-2.27,0 -4.28,0.02 -6.01,0.07c-0.11,-0.09 -0.17,-0.29 -0.17,-0.59s0.06,-0.51 0.17,-0.61c0.14,0 0.32,-0.01 0.55,-0.02c0.23,-0.01 0.41,-0.02 0.53,-0.03c0.13,-0.01 0.28,-0.02 0.45,-0.03c0.18,-0.01 0.31,-0.03 0.4,-0.07c0.09,-0.03 0.2,-0.07 0.32,-0.1c0.12,-0.03 0.21,-0.09 0.27,-0.15s0.1,-0.15 0.14,-0.25c0.03,-0.1 0.05,-0.2 0.03,-0.32s-0.04,-0.25 -0.09,-0.41l-1.97,-5.72l-6.66,0c-0.42,0 -0.71,0.04 -0.86,0.12c-0.15,0.08 -0.27,0.24 -0.38,0.48l-1.84,4.86zm3.78,-7.16l5.33,0l-2.86,-8.31l-0.24,0l-3.12,7.84c-0.03,0.07 -0.05,0.13 -0.03,0.19s0.03,0.1 0.07,0.14c0.03,0.03 0.09,0.06 0.17,0.09c0.08,0.02 0.17,0.04 0.28,0.04c0.11,0.01 0.24,0.01 0.4,0.01z" class="st0"/>
    <path id="svg_30" fill="#ffffff" d="m428.89,132.95l-5.41,0.07c-0.16,-0.11 -0.24,-0.32 -0.24,-0.61c0,-0.29 0.08,-0.49 0.24,-0.59c0.58,-0.02 1.02,-0.06 1.3,-0.12s0.57,-0.19 0.86,-0.39s0.49,-0.51 0.59,-0.94c0.1,-0.43 0.15,-1 0.15,-1.7l0,-14.06c0,-0.7 -0.05,-1.26 -0.15,-1.7c-0.1,-0.43 -0.3,-0.75 -0.59,-0.95c-0.29,-0.2 -0.58,-0.33 -0.86,-0.39s-0.72,-0.1 -1.31,-0.12c-0.16,-0.11 -0.24,-0.32 -0.24,-0.62c0,-0.3 0.08,-0.49 0.24,-0.58c2.66,0.05 4.46,0.07 5.41,0.07c0.42,0 1.15,-0.01 2.19,-0.02c1.04,-0.01 1.88,-0.02 2.53,-0.02c4.01,0 7.09,1.11 9.24,3.33c2.15,2.22 3.23,5.05 3.23,8.49c0,1.76 -0.25,3.34 -0.75,4.74c-0.5,1.4 -1.17,2.47 -2.01,3.22c-2.18,1.96 -5.1,2.95 -8.76,2.95c-0.47,0 -1.42,-0.01 -2.84,-0.03s-2.35,-0.03 -2.82,-0.03zm2.41,-4.13c0,1.13 0.24,1.88 0.72,2.24c0.48,0.37 1.36,0.55 2.65,0.55c0.72,0 1.44,-0.15 2.15,-0.46c0.71,-0.31 1.4,-0.78 2.07,-1.42c0.67,-0.64 1.21,-1.54 1.64,-2.71c0.42,-1.17 0.63,-2.51 0.63,-4.04c0,-1.22 -0.04,-2.3 -0.13,-3.24c-0.09,-0.94 -0.29,-1.94 -0.6,-3c-0.31,-1.06 -0.73,-1.93 -1.26,-2.63c-0.53,-0.7 -1.27,-1.27 -2.24,-1.73c-0.97,-0.46 -2.12,-0.69 -3.46,-0.69c-1.45,0 -2.18,0.88 -2.18,2.65l0,14.48l0.01,0z" class="st0"/>
    <path id="svg_31" fill="#ffffff" d="m459.65,120.14c1.21,0 2.03,-0.14 2.47,-0.42c0.44,-0.28 0.68,-0.89 0.73,-1.82c0.11,-0.11 0.37,-0.17 0.77,-0.17c0.4,0 0.65,0.06 0.74,0.17c-0.05,1.4 -0.07,2.42 -0.07,3.03c0,0.43 0.02,1.46 0.07,3.1c-0.09,0.1 -0.34,0.15 -0.74,0.15c-0.4,0 -0.66,-0.06 -0.77,-0.17c-0.05,-0.82 -0.3,-1.4 -0.75,-1.74c-0.46,-0.34 -1.27,-0.51 -2.44,-0.51l-2.83,0l0,8.09c0,0.47 0.14,0.87 0.43,1.2c0.28,0.33 0.62,0.49 1.01,0.49l3.54,0c2.45,0 4.1,-1.51 4.94,-4.52c0.58,-0.14 1.11,-0.08 1.58,0.17c-0.05,0.36 -0.12,0.96 -0.22,1.82c-0.1,0.86 -0.21,1.61 -0.33,2.26c-0.12,0.65 -0.25,1.23 -0.39,1.74c-2.1,-0.05 -3.71,-0.07 -4.84,-0.07l-8.23,0c-2.47,0.02 -4.29,0.05 -5.44,0.07c-0.09,-0.09 -0.14,-0.29 -0.14,-0.59s0.05,-0.51 0.14,-0.61c1.3,-0.05 2.14,-0.24 2.5,-0.57c0.36,-0.34 0.55,-1.2 0.55,-2.58l0,-14.03c0,-1.4 -0.18,-2.28 -0.55,-2.61c-0.37,-0.34 -1.2,-0.53 -2.52,-0.57c-0.09,-0.11 -0.14,-0.31 -0.14,-0.6s0.05,-0.49 0.14,-0.6l5.41,0.07l10.35,0c0.61,0 1.18,-0.05 1.71,-0.14c0.09,0 0.14,0.03 0.15,0.1c0.02,0.07 0.06,0.42 0.1,1.06c0.05,0.64 0.1,1.37 0.15,2.18c0.06,0.81 0.11,1.42 0.15,1.82c-0.42,0.21 -0.92,0.27 -1.51,0.17c-0.42,-1.37 -0.91,-2.35 -1.47,-2.93c-0.56,-0.58 -1.45,-0.86 -2.67,-0.86l-2.97,0c-0.4,0 -0.74,0.18 -1.02,0.53c-0.28,0.35 -0.42,0.75 -0.42,1.2l0,6.68l2.83,0l0,0.01z" class="st0"/>
    <path id="svg_32" fill="#ffffff" d="m474,114.6c0,-0.7 -0.05,-1.26 -0.15,-1.7c-0.1,-0.43 -0.3,-0.75 -0.59,-0.95c-0.29,-0.2 -0.58,-0.33 -0.86,-0.39s-0.72,-0.1 -1.31,-0.12c-0.16,-0.11 -0.24,-0.32 -0.24,-0.62c0,-0.3 0.08,-0.49 0.24,-0.58c1.87,0.05 3.68,0.07 5.41,0.07c1.68,0 3.45,-0.02 5.33,-0.07c0.16,0.09 0.24,0.28 0.25,0.57c0.01,0.29 -0.08,0.5 -0.25,0.63c-0.58,0.02 -1.01,0.06 -1.29,0.12s-0.57,0.19 -0.86,0.39c-0.29,0.2 -0.49,0.51 -0.6,0.94c-0.11,0.43 -0.16,1 -0.16,1.7l0,14.06c0,0.7 0.05,1.26 0.16,1.7c0.11,0.43 0.31,0.75 0.6,0.95s0.58,0.33 0.86,0.39s0.71,0.1 1.29,0.12c0.16,0.11 0.24,0.31 0.25,0.6c0.01,0.29 -0.08,0.49 -0.25,0.6c-1.87,-0.05 -3.65,-0.07 -5.33,-0.07c-1.74,0 -3.54,0.02 -5.41,0.07c-0.16,-0.11 -0.24,-0.32 -0.24,-0.61c0,-0.29 0.08,-0.49 0.24,-0.59c0.58,-0.02 1.02,-0.06 1.3,-0.12s0.57,-0.19 0.86,-0.39s0.49,-0.51 0.59,-0.94c0.1,-0.43 0.15,-1 0.15,-1.7l0,-14.06l0.01,0z" class="st0"/>
    <path id="svg_33" fill="#ffffff" d="m496.21,110.01c2.53,0 4.44,0.38 5.72,1.14c1.76,1.07 2.63,2.67 2.62,4.8c0,1.63 -0.38,2.95 -1.14,3.95c-0.76,1 -1.68,1.74 -2.75,2.2l4.76,7.44c0.54,0.83 1.04,1.43 1.52,1.79c0.48,0.36 1.1,0.55 1.85,0.55c0.07,0.13 0.11,0.32 0.12,0.58c0.01,0.26 -0.02,0.44 -0.09,0.55c-0.38,0.18 -1.57,0.27 -3.58,0.27c-1.66,0 -3.2,-1.02 -4.62,-3.07l-4.07,-6.19c-0.26,-0.43 -0.6,-0.72 -1,-0.86c-0.41,-0.15 -1.26,-0.22 -2.58,-0.22l0,5.74c0,0.71 0.05,1.28 0.16,1.72s0.31,0.76 0.6,0.96c0.29,0.2 0.58,0.33 0.86,0.39c0.28,0.06 0.71,0.1 1.29,0.12c0.16,0.11 0.24,0.3 0.25,0.57c0.01,0.27 -0.08,0.46 -0.25,0.57c-1.87,-0.04 -3.65,-0.07 -5.33,-0.07c-1.74,0 -3.54,0.02 -5.41,0.07c-0.16,-0.11 -0.24,-0.32 -0.24,-0.61c0,-0.29 0.08,-0.49 0.24,-0.59c0.58,-0.02 1.02,-0.06 1.3,-0.12s0.57,-0.19 0.86,-0.39c0.29,-0.2 0.49,-0.52 0.59,-0.94c0.1,-0.43 0.15,-1 0.15,-1.71l0,-14.08c0,-0.7 -0.05,-1.26 -0.15,-1.7c-0.1,-0.43 -0.3,-0.75 -0.59,-0.95c-0.29,-0.2 -0.58,-0.33 -0.86,-0.39c-0.28,-0.06 -0.72,-0.1 -1.31,-0.12c-0.16,-0.11 -0.24,-0.31 -0.24,-0.6s0.08,-0.48 0.24,-0.57c0.47,0 2.31,-0.04 5.53,-0.12c3.24,-0.07 5.08,-0.11 5.55,-0.11zm3.42,6.55c0,-3.43 -1.52,-5.14 -4.56,-5.14c-0.89,0 -1.46,0.21 -1.72,0.63c-0.26,0.42 -0.39,1.25 -0.39,2.5l0,6.99l1.51,0c1.68,0 2.96,-0.33 3.84,-1c0.88,-0.66 1.32,-1.99 1.32,-3.98z" class="st0"/>
    <path id="svg_34" fill="#ffffff" d="m515.31,130.17c-0.02,0.23 -0.06,0.43 -0.1,0.61c-0.05,0.18 0.02,0.33 0.19,0.45s0.31,0.21 0.42,0.28s0.3,0.13 0.58,0.17c0.28,0.05 0.5,0.07 0.65,0.09c0.15,0.01 0.38,0.03 0.68,0.05c0.09,0.09 0.14,0.29 0.14,0.6s-0.05,0.51 -0.14,0.6c-1.74,-0.05 -3.29,-0.07 -4.66,-0.07c-0.47,0 -1.57,0.02 -3.31,0.07c-0.11,-0.09 -0.17,-0.29 -0.17,-0.59s0.06,-0.51 0.17,-0.61c0.61,-0.05 1.08,-0.11 1.42,-0.21c0.34,-0.09 0.71,-0.31 1.1,-0.66s0.72,-0.88 0.99,-1.58l7.6,-17.95c0.87,0 2.16,-0.52 3.87,-1.56l7.23,20.07c0.11,0.35 0.27,0.65 0.47,0.88s0.36,0.41 0.47,0.52c0.11,0.11 0.36,0.21 0.74,0.29s0.59,0.12 0.65,0.12c0.06,0 0.33,0.02 0.82,0.07c0.09,0.09 0.14,0.29 0.14,0.6s-0.05,0.51 -0.14,0.6c-1.74,-0.05 -3.3,-0.07 -4.69,-0.07c-2.27,0 -4.28,0.02 -6.01,0.07c-0.11,-0.09 -0.17,-0.29 -0.17,-0.59s0.06,-0.51 0.17,-0.61c0.14,0 0.32,-0.01 0.55,-0.02c0.23,-0.01 0.41,-0.02 0.53,-0.03s0.28,-0.02 0.45,-0.03c0.18,-0.01 0.31,-0.03 0.4,-0.07c0.09,-0.03 0.2,-0.07 0.32,-0.1c0.12,-0.03 0.21,-0.09 0.27,-0.15s0.1,-0.15 0.14,-0.25s0.05,-0.2 0.03,-0.32s-0.04,-0.25 -0.09,-0.41l-1.97,-5.72l-6.66,0c-0.42,0 -0.71,0.04 -0.86,0.12c-0.15,0.08 -0.27,0.24 -0.38,0.48l-1.84,4.86zm3.79,-7.16l5.33,0l-2.86,-8.31l-0.24,0l-3.12,7.84c-0.03,0.07 -0.05,0.13 -0.03,0.19c0.01,0.06 0.03,0.1 0.07,0.14s0.09,0.06 0.17,0.09c0.08,0.02 0.17,0.04 0.28,0.04c0.1,0.01 0.24,0.01 0.4,0.01z" class="st0"/>
   </g>
  </g>
 </g>

</svg>